HIERARCHY
ROOT Hips
{
	OFFSET 0.000000 0.000000 0.000000 
	CHANNELS 6 Xposition Yposition Zposition Zrotation Yrotation Xrotation
	JOINT LeftUpLeg
	{
		OFFSET 1.363060 -1.794630 0.839290 
		CHANNELS 3 Zrotation Yrotation Xrotation
		JOINT LeftLeg
		{
			OFFSET 2.448110 -6.726130 0.000000 
			CHANNELS 3 Zrotation Yrotation Xrotation
			JOINT LeftFoot
			{
				OFFSET 2.562200 -7.039590 0.000000 
				CHANNELS 3 Zrotation Yrotation Xrotation
				JOINT LeftToeBase
				{
					OFFSET 0.157640 -0.433110 2.322550 
					CHANNELS 3 Zrotation Yrotation Xrotation
					End Site
					{
						OFFSET 0.000000 0.000000 0.000000 
					}
				}
			}
		}
	}
	JOINT RightUpLeg
	{
		OFFSET -1.305520 -1.794630 0.839290 
		CHANNELS 3 Zrotation Yrotation Xrotation
		JOINT RightLeg
		{
			OFFSET -2.542530 -6.985550 0.000000 
			CHANNELS 3 Zrotation Yrotation Xrotation
			JOINT RightFoot
			{
				OFFSET -2.568260 -7.056230 0.000000 
				CHANNELS 3 Zrotation Yrotation Xrotation
				JOINT RightToeBase
				{
					OFFSET -0.164730 -0.452590 2.363150 
					CHANNELS 3 Zrotation Yrotation Xrotation
					End Site
					{
						OFFSET 0.000000 0.000000 0.000000 
					}
				}
			}
		}
	}
	JOINT Spine
	{
		OFFSET 0.028270 2.035590 -0.193380 
		CHANNELS 3 Zrotation Yrotation Xrotation
		JOINT Spine1
		{
			OFFSET 0.056720 2.048850 -0.042750 
			CHANNELS 3 Zrotation Yrotation Xrotation
			JOINT Neck1
			{
				OFFSET -0.054170 1.746240 0.172020 
				CHANNELS 3 Zrotation Yrotation Xrotation
				JOINT Head
				{
					OFFSET 0.104070 1.761360 -0.123970 
					CHANNELS 3 Zrotation Yrotation Xrotation
					End Site
					{
						OFFSET 0.000000 0.000000 0.000000 
					}
				}
			}
			JOINT LeftArm
			{
				OFFSET 3.362410 1.200890 -0.311210 
				CHANNELS 3 Zrotation Yrotation Xrotation
				JOINT LeftForeArm
				{
					OFFSET 4.983000 -0.000000 -0.000000 
					CHANNELS 3 Zrotation Yrotation Xrotation
					JOINT LeftHand
					{
						OFFSET 3.483560 -0.000000 -0.000000 
						CHANNELS 3 Zrotation Yrotation Xrotation
						JOINT LeftHandIndex1
						{
							OFFSET 0.715260 -0.000000 -0.000000 
							CHANNELS 3 Zrotation Yrotation Xrotation
							End Site
							{
								OFFSET 0.000000 0.000000 0.000000 
							}
						}
					}
				}
			}
			JOINT RightArm
			{
				OFFSET -3.136600 1.374050 -0.404650 
				CHANNELS 3 Zrotation Yrotation Xrotation
				JOINT RightForeArm
				{
					OFFSET -5.241900 -0.000000 -0.000000 
					CHANNELS 3 Zrotation Yrotation Xrotation
					JOINT RightHand
					{
						OFFSET -3.444170 -0.000000 -0.000000 
						CHANNELS 3 Zrotation Yrotation Xrotation
						JOINT RightHandIndex1
						{
							OFFSET -0.622530 -0.000000 -0.000000 
							CHANNELS 3 Zrotation Yrotation Xrotation
							End Site
							{
								OFFSET 0.000000 0.000000 0.000000 
							}
						}
					}
				}
			}
		}
	}
}
MOTION
Frames: 18
Frame Time: 0.041667
7.025062 17.394882 -10.909668 -4.625852 -21.646069 5.283723 -18.511518 -19.117130 -1.973493 -1.719291 8.428227 23.608579 -2.515781 21.529216 -24.977077 0.000900 0.190400 0.523000 32.978105 26.072547 4.931629 2.947244 -4.288447 13.228870 2.961568 -27.521795 -12.197809 -1.733400 8.287200 -23.589900 1.235278 1.899437 -4.820289 -3.265336 0.418860 -3.653981 4.986603 8.642903 13.122731 0.674300 4.368700 13.150900 -86.314055 3.413699 44.033604 18.358982 -26.503543 -5.562601 0.062018 -1.966312 -35.157107 -7.125000 0.000000 0.000000 86.376007 -12.016041 33.096571 -17.001692 28.475146 -4.588328 0.612592 -0.109191 -12.370550 7.125000 0.000000 0.000000 
7.019015 17.397757 -10.917301 -4.649469 -21.466676 5.389166 -18.280504 -18.714539 -2.358759 -1.693207 8.448156 23.646388 -2.492916 21.225828 -24.560161 0.007100 -0.543400 -1.493200 32.985606 25.927052 4.907310 2.973971 -4.195343 12.982496 2.966674 -27.575177 -12.023857 -1.742500 8.307700 -23.652800 1.280836 1.756722 -4.853232 -3.140991 0.352133 -3.789252 4.813321 8.740167 12.901080 0.545900 4.399900 12.998600 -86.330888 3.502195 44.210194 18.605423 -26.811451 -5.687447 0.077834 -1.974944 -35.807744 -7.125000 0.000000 0.000000 86.320326 -11.936131 32.790201 -17.015592 28.495126 -4.597453 0.596004 -0.149428 -11.387825 7.125000 0.000000 0.000000 
7.015249 17.401425 -10.918986 -4.630215 -21.356113 5.406381 -18.212517 -18.524090 -2.507919 -1.688518 8.448426 23.639937 -2.481983 21.122088 -24.446843 0.032300 -1.159900 -3.188900 32.958863 25.794628 4.954076 2.991942 -4.116990 12.794984 2.964165 -27.567142 -11.964971 -1.728500 8.276100 -23.555900 1.292050 1.710551 -4.873488 -3.120623 0.331843 -3.911273 4.642558 8.747030 12.654235 0.397200 4.399100 12.822000 -86.255435 3.585541 44.489878 18.850082 -27.114002 -5.813816 0.100794 -1.984204 -36.486817 -7.125000 0.000000 0.000000 86.315615 -11.936264 32.530970 -17.061715 28.565033 -4.622832 0.578898 -0.188089 -10.623557 7.125000 0.000000 0.000000 
7.012969 17.406579 -10.917202 -4.605965 -21.271960 5.395158 -18.181649 -18.378684 -2.601571 -1.673489 8.463637 23.683010 -2.455758 20.961941 -24.325968 0.065500 -1.650700 -4.541100 32.921604 25.644450 5.083404 3.017742 -3.999696 12.524835 2.962747 -27.550659 -11.957784 -1.645200 8.084200 -22.970200 1.287824 1.712365 -4.884582 -3.144856 0.333297 -3.986262 4.581917 8.730495 12.497911 0.335300 4.393100 12.707700 -86.171334 3.618604 44.722861 19.024032 -27.324631 -5.904180 0.119012 -1.991431 -37.016386 -7.125000 0.000000 0.000000 86.277012 -11.999966 32.779335 -17.225078 28.784897 -4.702479 0.562899 -0.224023 -9.752055 7.125000 0.000000 0.000000 
7.011581 17.412131 -10.915517 -4.587688 -21.221156 5.391141 -18.180106 -18.474756 -2.575156 -1.660500 8.481234 23.737431 -2.412933 20.796459 -24.339403 0.077600 -1.797300 -4.945700 32.883808 25.530723 5.213153 3.045960 -3.882620 12.252111 2.973430 -27.586022 -11.996560 -1.523200 7.792900 -22.086700 1.277589 1.723990 -4.891103 -3.186774 0.337032 -4.015641 4.640814 8.712681 12.450280 0.371600 4.391200 12.669300 -86.087750 3.629583 44.886732 19.160291 -27.485728 -5.974591 0.132441 -1.996771 -37.362603 -7.125000 0.000000 0.000000 86.183220 -11.895140 32.969780 -17.232286 28.810896 -4.707054 0.544968 -0.264536 -8.807691 7.125000 0.000000 0.000000 
7.010590 17.414410 -10.913336 -4.596078 -21.179366 5.404955 -18.157363 -18.551553 -2.591289 -1.654323 8.505051 23.805113 -2.371378 20.738783 -24.604613 0.140100 -2.412500 -6.647200 32.874490 25.434777 5.339466 3.071258 -3.766707 11.980071 2.979001 -27.621677 -11.856633 -1.531400 7.813100 -22.147700 1.269378 1.724457 -4.893677 -3.255490 0.334763 -4.012003 4.645203 8.712763 12.435302 0.372000 4.394400 12.668400 -86.015991 3.662049 45.073655 19.355616 -27.721022 -6.078271 0.150442 -2.010489 -37.890074 -7.125000 0.000000 0.000000 86.056686 -11.650780 33.231319 -17.123613 28.692244 -4.655297 0.523312 -0.309825 -7.830205 7.125000 0.000000 0.000000 
7.009103 17.414311 -10.911353 -4.653528 -21.131969 5.430346 -18.058700 -18.343243 -2.744555 -1.632405 8.531716 23.880558 -2.367240 20.637768 -24.439315 0.171000 -2.664100 -7.345100 32.933628 25.346664 5.451835 3.088558 -3.679937 11.778581 2.971498 -27.608425 -11.687264 -1.568000 7.901500 -22.415400 1.262566 1.717062 -4.895955 -3.370606 0.326617 -4.006858 4.571427 8.719481 12.448702 0.313800 4.398600 12.709600 -85.957259 3.648563 45.072901 19.356266 -27.718599 -6.077866 0.150463 -2.009189 -37.879274 -7.125000 0.000000 0.000000 85.907661 -11.445846 33.637800 -17.005805 28.558975 -4.597511 0.503279 -0.352970 -6.727684 7.125000 0.000000 0.000000 
7.007715 17.412824 -10.911552 -4.667703 -21.094421 5.416350 -18.001238 -18.032201 -2.916649 -1.615018 8.549390 23.928156 -2.376659 20.572326 -24.216168 0.200600 -2.883700 -7.955100 32.953127 25.274142 5.536417 3.099638 -3.626711 11.660970 2.970093 -27.599525 -11.680088 -1.515600 7.774500 -22.031100 1.240934 1.703239 -4.905283 -3.527865 0.314233 -4.053326 4.494323 8.727557 12.472434 0.244700 4.408500 12.758800 -85.864170 3.641500 45.067488 19.317285 -27.666797 -6.057490 0.146800 -2.009537 -37.839491 -7.125000 0.000000 0.000000 85.775505 -11.372587 34.325721 -16.980342 28.539637 -4.581868 0.484130 -0.393464 -5.789001 7.125000 0.000000 0.000000 
7.006724 17.413617 -10.912245 -4.645434 -21.052532 5.406764 -17.980779 -17.786456 -3.064334 -1.604167 8.558154 23.945944 -2.380619 20.496056 -24.005746 0.208800 -2.941800 -8.116600 32.926983 25.224837 5.551218 3.103611 -3.604927 11.611972 2.970654 -27.598598 -11.672763 -1.493400 7.719800 -21.866200 1.221924 1.690822 -4.917444 -3.639941 0.304562 -4.105879 4.436578 8.732366 12.485788 0.185900 4.418600 12.788800 -85.805684 3.645893 45.098268 19.264081 -27.600630 -6.030877 0.140818 -2.012642 -37.801659 -7.125000 0.000000 0.000000 85.675203 -11.391586 34.816181 -17.016327 28.600713 -4.597042 0.463279 -0.434512 -4.680432 7.125000 0.000000 0.000000 
7.006030 17.419169 -10.910858 -4.640662 -21.037163 5.413140 -17.967470 -17.771143 -3.067240 -1.598275 8.557366 23.948822 -2.359615 20.374911 -23.925472 0.192900 -2.828700 -7.802300 32.925605 25.210949 5.554495 3.101959 -3.602573 11.608280 2.963089 -27.569676 -11.613628 -1.521700 7.789200 -22.075700 1.214813 1.712608 -4.921518 -3.692264 0.313410 -4.123840 4.404762 8.719293 12.479651 0.150700 4.416800 12.790000 -85.837784 3.613658 45.072082 19.175758 -27.493819 -5.987007 0.134068 -2.015333 -37.672074 -7.125000 0.000000 0.000000 85.596124 -11.442032 34.897090 -17.033437 28.644471 -4.606155 0.439631 -0.477095 -3.275204 7.125000 0.000000 0.000000 
7.005732 17.419664 -10.908677 -4.638096 -21.053011 5.364813 -17.981804 -17.786809 -2.984152 -1.593710 8.554769 23.959475 -2.325013 20.256256 -23.973960 0.187400 -2.787700 -7.688300 32.951678 25.191841 5.632279 3.099393 -3.597035 11.612542 2.954779 -27.526487 -11.596779 -1.558200 7.878000 -22.344000 1.220587 1.754090 -4.912961 -3.689922 0.334706 -4.127725 4.356131 8.721351 12.482917 0.116100 4.414200 12.795400 -85.927787 3.566149 45.028514 19.078926 -27.377963 -5.940247 0.132367 -2.016565 -37.538810 -7.125000 0.000000 0.000000 85.504724 -11.541181 34.816777 -17.047405 28.685738 -4.614805 0.413969 -0.520530 -1.728514 7.125000 0.000000 0.000000 
7.004741 17.415897 -10.907983 -4.690438 -21.065934 5.324418 -17.908483 -17.579712 -3.010391 -1.584712 8.555515 23.980321 -2.325343 20.226420 -23.928107 0.243000 -3.172100 -8.758200 33.048422 25.175095 5.711607 3.099409 -3.595679 11.622779 2.948822 -27.498537 -11.627975 -1.573100 7.913800 -22.452600 1.239856 1.788536 -4.902936 -3.657187 0.352647 -4.131939 4.312999 8.741907 12.512929 0.092800 4.417600 12.823000 -86.019128 3.529645 45.003137 18.987864 -27.269727 -5.897043 0.132987 -2.018412 -37.500002 -7.125000 0.000000 0.000000 85.404400 -11.602164 34.212013 -16.997942 28.668507 -4.595891 0.363813 -0.601670 1.050597 7.125000 0.000000 0.000000 
7.002759 17.413518 -10.909371 -4.724652 -21.081661 5.336146 -17.791338 -17.084602 -3.259243 -1.564768 8.569393 24.019511 -2.344496 20.160078 -23.628664 0.327800 -3.679800 -10.177600 33.100036 25.199483 5.710679 3.101868 -3.601267 11.631999 2.951724 -27.507751 -11.726818 -1.509300 7.758800 -21.984000 1.250811 1.806717 -4.902727 -3.631141 0.361464 -4.138039 4.320566 8.761906 12.553819 0.104200 4.425600 12.853100 -86.063721 3.508064 44.914117 18.879795 -27.139967 -5.844420 0.128908 -2.018398 -37.374273 -7.125000 0.000000 0.000000 85.320740 -11.689126 34.738488 -17.041971 28.721048 -4.614948 0.359128 -0.602168 1.314738 7.125000 0.000000 0.000000 
7.000479 17.413023 -10.912345 -4.650549 -21.111451 5.331219 -17.769912 -16.603523 -3.525689 -1.538238 8.587405 24.063255 -2.296000 19.806476 -23.270954 0.309300 -3.575300 -9.884800 33.023329 25.238654 5.682789 3.103590 -3.606957 11.642736 2.967955 -27.557756 -11.886763 -1.392300 7.465100 -21.100700 1.257446 1.797816 -4.904150 -3.557137 0.360692 -4.142442 4.346766 8.809576 12.602090 0.133000 4.445900 12.885400 -86.094084 3.506032 44.859596 18.785672 -27.028502 -5.798295 0.124917 -2.017682 -37.327638 -7.125000 0.000000 0.000000 85.239714 -11.686425 35.228787 -17.027627 28.687338 -4.606548 0.364168 -0.583280 1.368657 7.125000 0.000000 0.000000 
6.999586 17.412527 -10.910461 -4.588570 -21.192135 5.248139 -17.875693 -16.730469 -3.342570 -1.539618 8.574456 24.050855 -2.234420 19.621659 -23.402757 0.214100 -2.978800 -8.219600 33.051674 25.301727 5.709825 3.093138 -3.644922 11.746535 3.012090 -27.810346 -11.423556 -1.590100 7.954400 -22.575600 1.254876 1.812149 -4.887989 -3.536310 0.369855 -4.115772 4.369452 8.864508 12.656956 0.161500 4.469500 12.920500 -86.117312 3.514595 44.864285 18.703262 -26.930767 -5.757768 0.123519 -2.019927 -37.441798 -7.125000 0.000000 0.000000 85.177778 -11.686941 35.520795 -16.986003 28.622902 -4.586975 0.372338 -0.559148 1.506554 7.125000 0.000000 0.000000 
7.000677 17.410148 -10.901540 -4.583631 -21.321002 5.130074 -18.048404 -17.184314 -2.902916 -1.566207 8.544791 24.002429 -2.233902 19.845582 -23.869721 0.160000 -2.577000 -7.103100 33.156197 25.394523 5.787078 3.074972 -3.700902 11.904100 3.042712 -28.027270 -10.846035 -1.872600 8.595400 -24.537700 1.243012 1.858583 -4.857097 -3.610544 0.390949 -4.042344 4.374506 8.918013 12.724498 0.181800 4.490600 12.960600 -86.150716 3.529696 44.774148 18.594649 -26.800939 -5.704185 0.118188 -2.022189 -37.347503 -7.125000 0.000000 0.000000 85.174099 -11.710952 35.730588 -16.928340 28.580910 -4.556724 0.353149 -0.606085 1.572550 7.125000 0.000000 0.000000 
7.001272 17.407670 -10.896286 -4.572271 -21.414976 5.065057 -18.130423 -17.232711 -2.771860 -1.579636 8.534509 23.980592 -2.261635 20.049181 -24.048840 0.168700 -2.645900 -7.294500 33.118824 25.459559 5.848309 3.067056 -3.732202 11.998622 3.021170 -27.837246 -11.400801 -1.628400 8.044900 -22.850500 1.246169 1.874413 -4.838636 -3.628310 0.398380 -3.994311 4.379161 9.006714 12.817351 0.214000 4.522700 13.014700 -86.209367 3.569464 44.641664 18.507687 -26.697137 -5.661334 0.115302 -2.021395 -37.215254 -7.125000 0.000000 0.000000 85.170910 -11.695952 35.761795 -16.827365 28.452737 -4.504492 0.368201 -0.609161 1.634087 7.125000 0.000000 0.000000 
7.000776 17.405291 -10.896286 -4.558350 -21.469587 5.013688 -18.152728 -17.115568 -2.755982 -1.584307 8.526451 23.962791 -2.276155 20.121315 -24.072786 0.187300 -2.787100 -7.686500 33.082120 25.499834 5.888853 3.060336 -3.761671 12.085166 2.993176 -27.628686 -11.995236 -1.370800 7.409800 -20.935200 1.248268 1.881304 -4.830068 -3.640801 0.401284 -3.992150 4.387106 9.106543 12.928675 0.243200 4.563800 13.088400 -86.237597 3.631681 44.555172 18.455133 -26.632945 -5.633881 0.114658 -2.017839 -37.181508 -7.125000 0.000000 0.000000 85.197381 -11.672007 35.643861 -16.717768 28.292474 -4.456395 0.387948 -0.559826 1.625831 7.125000 0.000000 0.000000 
